<?xml version="1.0" standalone="no"?>
<!DOCTYPE svg PUBLIC "-//W3C//DTD SVG 20010904//EN"
 "http://www.w3.org/TR/2001/REC-SVG-20010904/DTD/svg10.dtd">
<svg version="1.0" xmlns="http://www.w3.org/2000/svg"
 width="300.000000pt" height="300.000000pt" viewBox="0 0 300.000000 300.000000"
 preserveAspectRatio="xMidYMid meet">
<metadata>
Created by potrace 1.10, written by Peter Selinger 2001-2011
</metadata>
<g transform="translate(0.000000,300.000000) scale(0.100000,-0.100000)"
fill="#25c2a0" stroke="none">
<path d="M1168 2639 c-11 -6 -18 -21 -17 -37 0 -26 1 -26 9 -5 14 34 43 45 69
27 24 -17 25 -54 2 -62 -9 -3 -11 2 -6 17 4 15 1 23 -10 27 -25 10 -41 -12
-24 -32 13 -16 12 -17 -7 -12 -16 4 -25 -1 -33 -19 -15 -32 -14 -68 2 -81 7
-6 14 -26 16 -44 4 -45 8 -81 9 -96 1 -7 7 -10 12 -7 6 3 10 37 10 74 0 55 -4
71 -20 86 -25 23 -25 37 0 60 40 37 97 -24 59 -62 -8 -8 -11 -43 -10 -93 2
-71 0 -82 -16 -86 -10 -3 -28 -20 -40 -38 -20 -32 -23 -33 -76 -28 -51 4 -55
3 -76 -26 -12 -17 -21 -45 -21 -66 0 -23 -5 -36 -13 -36 -7 0 -23 -9 -36 -21
-18 -17 -25 -18 -36 -9 -20 17 -19 33 5 50 15 11 20 26 20 61 0 25 7 60 15 77
41 81 -52 155 -117 94 -32 -29 -38 -81 -13 -102 8 -7 15 -29 15 -49 0 -20 9
-54 20 -76 23 -46 23 -45 10 -45 -22 0 -118 -69 -125 -89 -3 -11 -21 -28 -39
-39 l-32 -19 -32 28 c-42 38 -99 40 -138 5 l-28 -23 1 -420 c1 -368 3 -424 17
-451 9 -18 21 -32 27 -32 6 0 -3 -16 -20 -35 -45 -52 -42 -125 6 -125 31 0 39
4 207 113 77 50 146 90 153 90 7 0 13 4 13 9 0 4 5 8 11 8 7 0 5 -10 -5 -25
-9 -13 -16 -36 -16 -50 0 -20 -5 -25 -25 -25 -31 0 -100 -42 -115 -70 -13 -23
-6 -53 17 -75 24 -25 10 -27 -32 -5 -50 26 -80 25 -117 -1 -65 -47 -71 -124
-13 -177 29 -27 43 -33 73 -31 20 2 46 9 57 16 11 7 26 13 34 13 8 0 29 11 48
26 18 14 33 21 33 17 0 -4 4 -3 8 3 8 12 149 116 178 132 19 10 21 8 22 -19 0
-17 6 -37 12 -44 9 -11 5 -14 -20 -13 -18 1 -35 -3 -38 -8 -4 -5 -16 -14 -26
-20 -11 -6 -23 -23 -27 -38 -6 -23 -1 -33 38 -70 40 -39 175 -114 258 -145 57
-21 190 -41 271 -41 87 0 258 31 307 55 17 8 34 15 39 15 17 0 164 94 217 139
227 191 341 447 341 765 0 147 -14 239 -41 274 -15 19 -16 27 -7 42 13 21 -6
67 -53 122 l-25 31 -38 -18 c-21 -10 -45 -29 -54 -43 -15 -22 -15 -27 0 -52 9
-15 13 -32 9 -37 -9 -13 -111 -93 -120 -93 -4 0 -24 21 -45 46 l-39 47 23 41
c18 34 28 42 54 44 50 4 91 21 117 48 22 24 23 27 8 52 -12 22 -21 27 -50 25
-122 -7 -126 -7 -165 15 -21 11 -54 68 -54 92 0 20 67 4 109 -25 21 -14 49
-25 63 -25 15 0 43 -9 62 -21 42 -24 73 -18 82 17 3 13 10 21 16 18 13 -8 58
24 58 42 0 14 3 14 15 4 11 -9 13 -24 9 -54 -4 -30 -3 -37 5 -25 20 32 24 123
7 180 -40 141 -190 232 -327 201 -58 -14 -142 -58 -135 -71 3 -5 21 -3 40 3
19 6 32 14 30 18 -3 4 0 8 5 8 19 0 12 -15 -25 -50 -75 -72 -91 -89 -92 -102
-5 -38 -9 -55 -20 -75 -16 -29 -15 -56 4 -125 16 -55 16 -59 -1 -78 -10 -11
-28 -20 -39 -20 -28 0 -68 28 -60 41 3 6 6 58 6 115 0 96 -2 108 -23 130 -25
27 -21 29 35 13 50 -14 76 -1 105 52 20 35 21 40 6 62 -22 35 -117 77 -172 77
-14 0 -50 7 -80 16 l-55 16 5 45 c3 25 9 48 15 52 5 3 13 21 17 39 13 61 -55
123 -112 101 -63 -24 -86 -75 -58 -131 9 -18 19 -50 22 -71 4 -33 2 -39 -16
-44 -12 -3 -21 -9 -21 -13 0 -5 -13 -11 -30 -15 -43 -9 -53 -30 -10 -22 18 4
52 7 76 7 l44 0 0 66 c0 56 -4 71 -25 96 -27 32 -26 62 3 86 18 13 51 16 68 4
34 -22 34 -85 -1 -98 -11 -5 -15 -23 -15 -79 l0 -72 68 -6 c74 -6 167 -28 226
-52 l36 -15 -26 -39 -26 -39 -35 15 c-41 17 -171 43 -214 43 l-29 0 0 -147 c0
-126 2 -144 14 -128 12 16 13 15 12 -16 -1 -34 -1 -34 -53 -37 l-51 -3 1 62
c1 40 7 64 15 67 8 2 12 -8 13 -30 3 -71 18 44 18 140 1 69 -2 92 -12 92 -7 0
-17 15 -22 33 -10 31 -11 32 -74 35 -53 2 -70 -1 -92 -17 -43 -32 -60 -28 -48
11 5 18 9 50 9 71 0 21 7 53 15 73 10 25 12 42 5 60 -6 14 -10 40 -10 58 0 53
-47 82 -92 55z m-248 -309 c24 -24 25 -38 3 -62 -12 -14 -16 -34 -14 -77 2
-53 0 -61 -20 -71 -22 -12 -22 -12 -16 57 6 61 4 71 -13 86 -24 21 -25 44 -3
69 21 23 38 23 63 -2z m1258 -49 c72 -37 112 -102 112 -181 0 -45 -15 -69 -24
-37 -2 6 -8 34 -15 60 -23 96 -83 143 -174 134 -29 -3 -63 -7 -76 -9 -37 -5
-37 20 1 37 48 21 131 19 176 -4z m-773 -175 l0 -179 -50 -13 c-27 -7 -53 -13
-57 -14 -10 0 -10 374 -1 384 4 4 30 6 58 4 l50 -3 0 -179z m-166 36 c1 -115
0 -119 -24 -142 l-26 -24 5 131 c4 135 8 153 30 153 11 0 14 -27 15 -118z
m918 62 c13 -8 29 -24 37 -37 18 -27 32 -97 20 -97 -5 0 -31 16 -58 35 -27 19
-58 35 -68 35 -19 0 -78 47 -78 61 0 13 63 28 95 22 17 -3 40 -11 52 -19z
m-504 -1 c43 -8 31 -23 -19 -23 -25 0 -54 -5 -65 -10 -16 -9 -19 -7 -19 8 0
27 21 42 49 36 14 -3 38 -8 54 -11z m338 -43 c53 -45 76 -59 90 -55 40 13 68
-43 32 -64 -23 -12 -53 4 -53 28 0 15 -16 22 -86 37 -48 11 -88 24 -91 30 -4
11 24 84 33 84 3 0 37 -27 75 -60z m-846 -72 c4 -57 10 -97 12 -90 4 10 9 8
19 -7 12 -16 20 -18 44 -11 32 9 31 11 44 -66 5 -29 2 -32 -62 -64 -37 -19
-71 -36 -76 -39 -5 -2 -6 53 -2 131 8 151 3 168 -55 168 -27 0 -29 2 -29 40
l0 40 49 0 48 0 8 -102z m563 -62 c2 -103 1 -118 -13 -113 -8 4 -37 9 -65 13
l-50 7 0 102 c0 56 3 105 7 109 4 4 32 6 63 4 l55 -3 3 -119z m182 39 c0 -35
34 -99 66 -124 41 -32 100 -45 148 -31 59 16 68 16 73 3 5 -14 -39 -38 -87
-47 -76 -13 -177 40 -215 115 -8 15 -17 45 -21 68 -6 37 -5 41 15 41 16 0 21
-6 21 -25z m334 -67 c-4 -7 -33 8 -73 38 -2 2 -1 11 3 20 6 15 11 13 41 -16
19 -18 32 -37 29 -42z m-1357 -510 c-38 -59 -77 -157 -77 -191 0 -19 3 -17 21
13 20 32 22 33 29 15 10 -24 46 -56 54 -48 3 4 6 2 6 -3 0 -13 -221 -154 -232
-148 -5 4 -7 45 -3 97 4 51 10 220 13 377 7 274 8 287 29 315 l22 30 1 -292
c0 -183 -4 -294 -10 -298 -5 -3 -15 -16 -21 -27 -11 -21 -11 -21 17 1 l28 22
11 -38 c10 -34 12 -23 18 102 4 77 7 237 6 355 l0 215 58 37 58 38 3 -260 2
-259 -33 -53z m221 431 l3 -137 -66 -65 -65 -65 0 197 c0 109 3 201 7 205 4 4
32 6 63 4 l55 -3 3 -136z m-461 -379 l2 -405 -57 -37 -57 -37 -3 432 c-1 237
0 438 3 445 3 9 21 12 57 10 l53 -3 2 -405z m1351 241 l-30 -43 51 -52 52 -52
-38 -31 -38 -30 -30 37 c-160 197 -454 251 -690 127 -87 -46 -193 -155 -238
-246 -20 -41 -37 -81 -37 -91 0 -9 -25 -36 -55 -58 -62 -47 -64 -44 -39 52 60
238 269 436 513 487 85 18 243 7 326 -23 39 -14 77 -28 86 -32 12 -5 23 4 43
37 l26 45 64 -41 63 -42 -29 -44z m312 75 c0 -2 3 -11 6 -19 3 -9 -8 -25 -31
-42 -35 -27 -36 -27 -50 -9 -13 17 -11 22 18 46 28 24 57 36 57 24z m-138
-256 c-108 -92 -277 -239 -375 -327 l-177 -160 -79 41 -80 41 -78 -55 c-43
-30 -195 -137 -338 -239 -143 -101 -269 -186 -280 -189 -11 -3 -27 -10 -35
-17 -26 -21 -48 -25 -80 -14 -35 13 -50 35 -50 75 0 80 122 102 151 27 8 -23
11 -24 29 -12 11 8 155 111 321 229 166 118 315 223 330 233 27 18 28 18 98
-17 39 -20 74 -36 78 -36 5 0 46 34 93 76 295 265 638 538 657 522 9 -7 -43
-57 -185 -178z m-397 111 c36 -18 75 -42 85 -54 11 -11 20 -17 20 -13 0 4 20
-14 45 -40 25 -25 45 -50 45 -53 0 -9 -64 -70 -105 -100 -16 -12 -66 -55 -110
-95 -181 -165 -175 -166 -180 9 -4 137 -19 258 -36 284 -10 17 -4 -301 8 -367
l5 -32 -31 17 c-30 17 -32 21 -27 58 3 22 8 108 11 190 5 132 4 147 -8 125 -8
-14 -17 -58 -21 -99 -3 -41 -8 -76 -10 -78 -2 -2 -16 13 -32 34 -38 50 -51 63
-57 57 -3 -3 -15 0 -27 6 -32 17 -68 -1 -127 -63 -53 -57 -65 -66 -155 -133
-34 -24 -63 -42 -66 -40 -2 3 5 17 16 33 10 15 25 46 32 68 49 157 236 312
398 331 14 1 22 -3 22 -13 0 -8 11 -28 24 -43 l24 -29 31 31 c17 17 31 38 31
48 0 16 5 17 64 5 36 -6 94 -26 131 -44z m-232 35 c3 -7 1 -18 -5 -24 -15 -15
-38 -3 -38 19 0 22 35 26 43 5z m838 -123 c8 -40 14 -128 13 -213 0 -117 -4
-162 -23 -235 -60 -234 -194 -426 -386 -551 -158 -103 -274 -138 -460 -138
-139 0 -205 13 -320 61 -55 23 -218 124 -229 141 -3 5 10 20 29 35 l34 27 80
-54 c142 -95 287 -134 458 -123 184 12 342 88 488 232 119 119 176 218 222
386 21 75 25 349 6 411 -11 35 -10 38 20 62 18 14 37 25 43 26 7 0 18 -30 25
-67z m-125 -36 c3 -8 7 -31 10 -53 2 -21 7 -57 10 -79 5 -38 -6 -168 -21 -245
-13 -68 -25 -55 -25 26 0 128 -33 274 -62 274 -19 0 -6 34 25 61 35 31 55 36
63 16z m-887 -72 c16 -8 31 -22 35 -30 30 -80 -53 -148 -122 -99 -22 15 -26
14 -95 -45 -40 -33 -153 -111 -252 -174 -99 -63 -232 -149 -295 -191 -102 -67
-115 -73 -118 -55 -2 11 -1 26 1 33 3 7 133 95 289 196 305 198 433 292 442
327 6 22 48 52 74 53 7 0 26 -7 41 -15z m807 -87 c37 -146 21 -315 -43 -443
-34 -68 -43 -78 -58 -65 -9 7 -25 -6 -59 -49 -181 -231 -501 -305 -763 -176
-82 40 -190 132 -174 148 6 6 28 -6 63 -37 60 -53 166 -107 248 -127 90 -21
222 -15 316 15 93 30 200 100 263 173 50 58 105 166 126 248 19 75 19 204 1
275 l-14 55 31 27 c18 15 35 27 38 28 4 0 15 -33 25 -72z m-720 -123 c-3 -12
-16 -26 -28 -32 -13 -6 -99 -65 -193 -132 -93 -66 -173 -121 -177 -121 -5 0
-13 12 -19 28 -13 33 -48 72 -66 72 -19 0 -16 20 5 27 9 4 19 10 22 13 3 4 32
24 65 45 54 34 136 97 174 133 7 7 19 11 27 8 40 -15 84 -17 110 -3 32 16 73
60 76 80 1 6 3 -13 5 -42 2 -30 2 -65 -1 -76z m608 71 c11 -53 -1 -70 -39 -60
-26 6 -74 -11 -91 -34 -18 -23 -17 -25 6 -50 15 -15 33 -22 60 -22 54 0 70 -8
70 -36 0 -22 -3 -24 -27 -18 -48 12 -83 8 -98 -12 -13 -17 -12 -21 15 -46 17
-16 39 -28 50 -28 23 0 32 -13 24 -34 -8 -22 -20 -20 -82 11 l-53 27 -26 -26
c-25 -26 -26 -27 -9 -53 9 -14 32 -33 51 -42 43 -21 51 -41 26 -66 -19 -20
-20 -20 -54 17 -39 41 -56 44 -82 16 -16 -18 -17 -23 -5 -46 8 -14 22 -30 32
-35 23 -13 23 -36 -1 -48 -16 -9 -21 -6 -31 19 -24 58 -70 76 -94 37 -9 -14
-6 -26 12 -59 23 -43 19 -63 -14 -56 -10 2 -21 16 -26 34 -15 60 -72 83 -85
34 -5 -19 -6 -19 -34 -3 -16 10 -29 22 -29 27 0 5 -13 -3 -29 -18 l-28 -27
-20 27 c-13 18 -26 25 -36 21 -22 -8 -46 -48 -49 -80 -2 -22 -6 -26 -23 -21
-11 4 -22 11 -23 15 -2 5 -9 6 -15 2 -6 -3 1 9 16 29 33 42 34 72 6 92 -20 13
-24 13 -45 -2 -13 -9 -28 -29 -33 -44 -6 -16 -17 -28 -25 -28 -29 0 -28 22 3
52 37 36 39 60 9 80 -19 13 -25 13 -50 -1 -15 -9 -33 -28 -39 -43 -10 -24 -14
-26 -35 -16 -33 15 -30 24 14 52 20 14 62 43 92 65 121 88 233 161 247 161 24
0 53 -20 53 -35 0 -8 5 -15 10 -15 11 0 12 -83 1 -175 -9 -77 -17 -56 -28 75
-8 98 -10 103 -22 75 -23 -54 5 -215 38 -215 14 0 31 26 42 62 13 46 13 148 0
161 -20 20 -12 26 24 16 45 -13 54 -8 179 104 236 212 266 238 281 233 6 -1
14 -24 19 -50z m21 -116 c0 -11 -15 -16 -59 -18 -59 -3 -84 7 -71 28 11 18
130 9 130 -10z m-66 -131 c44 -16 40 -33 -6 -24 -44 8 -53 13 -53 26 0 12 20
11 59 -2z m-1016 -76 c9 -25 16 -47 15 -47 -2 -1 -17 -11 -35 -24 l-32 -22
-19 42 -20 43 32 27 c17 15 33 28 36 28 3 0 13 -21 23 -47z m947 -44 c49 -30
57 -39 44 -52 -6 -6 -85 34 -108 54 -8 7 -1 29 9 29 3 0 27 -14 55 -31z
m-1060 -74 c0 -11 -89 -80 -95 -73 -6 7 -25 47 -25 52 0 3 21 19 48 36 43 27
48 28 60 13 6 -9 12 -22 12 -28z m987 -81 c-10 -10 -57 36 -57 55 0 11 10 6
32 -16 18 -18 29 -36 25 -39z m-643 48 c3 -5 -8 -21 -23 -36 -36 -34 -54 -16
-20 20 24 25 35 29 43 16z m89 -58 c7 -7 -32 -74 -44 -74 -14 0 -11 15 9 49
17 31 24 36 35 25z m440 -25 c19 -34 22 -49 8 -49 -9 0 -51 61 -51 74 0 18 27
2 43 -25z m-332 -40 c-4 -29 -21 -63 -28 -56 -10 11 9 88 20 84 7 -2 10 -15 8
-28z m215 -15 c3 -19 4 -38 0 -41 -8 -9 -38 66 -31 78 11 16 24 0 31 -37z
m-113 -6 c6 -45 2 -62 -14 -53 -11 8 -12 95 0 95 4 0 11 -19 14 -42z m55 0
c-3 -7 1 -19 9 -26 19 -19 16 -32 -7 -32 -20 0 -26 22 -14 54 7 19 18 22 12 4z
m-108 -39 c0 -12 -7 -19 -20 -19 -23 0 -27 18 -5 26 8 4 12 11 8 17 -3 6 -1 7
5 3 7 -4 12 -16 12 -27z"/>
<path d="M864 2309 c-8 -14 21 -43 35 -35 19 12 13 46 -8 46 -11 0 -23 -5 -27
-11z"/>
<path d="M1345 2120 c-26 -27 -26 -40 1 -22 11 7 38 52 31 52 -2 0 -16 -13
-32 -30z"/>
<path d="M1639 2070 c-19 -16 -29 -29 -22 -30 15 0 70 47 62 54 -3 3 -21 -8
-40 -24z"/>
<path d="M840 1651 c-19 -16 -32 -32 -28 -36 9 -10 24 1 48 35 27 37 23 37
-20 1z"/>
<path d="M1028 1895 c-42 -37 -49 -51 -19 -35 17 8 68 70 59 70 -2 0 -20 -16
-40 -35z"/>
<path d="M560 1185 c-13 -14 -19 -25 -14 -25 12 0 26 11 43 33 21 26 -2 20
-29 -8z"/>
<path d="M626 774 c-11 -27 -7 -43 14 -54 15 -8 24 -6 40 10 16 16 18 25 10
40 -13 24 -55 27 -64 4z"/>
<path d="M1285 1474 c-19 -20 -16 -43 8 -58 37 -23 77 35 41 61 -23 17 -29 16
-49 -3z"/>
<path d="M1476 2564 c-7 -19 10 -44 29 -44 19 0 36 25 29 44 -3 9 -16 16 -29
16 -13 0 -26 -7 -29 -16z"/>
<path d="M1193 2514 c-7 -19 11 -39 26 -30 16 10 13 33 -4 40 -9 3 -18 -1 -22
-10z"/>
<path d="M2167 2455 c-13 -15 -37 -28 -53 -30 -16 -2 -53 -6 -83 -10 -64 -7
-136 -42 -150 -72 -9 -21 -7 -20 35 7 72 45 169 60 254 39 11 -3 15 4 15 23 0
36 8 41 39 27 29 -14 32 -46 3 -41 -31 5 -17 -23 26 -51 92 -63 144 -170 134
-280 -3 -34 -8 -71 -12 -82 -3 -11 1 -7 11 10 9 16 19 59 21 95 7 88 -21 161
-88 232 -41 43 -49 58 -45 79 4 19 -1 32 -17 47 -38 34 -63 36 -90 7z"/>
<path d="M1503 2333 c-18 -7 -16 -50 2 -57 12 -4 15 3 15 29 0 19 -1 35 -2 34
-2 0 -9 -3 -15 -6z"/>
<path d="M690 2285 c-13 -15 -10 -219 4 -232 3 -3 6 46 6 110 0 97 3 117 15
117 13 0 15 -21 16 -127 1 -145 15 -132 23 22 4 73 2 93 -11 107 -20 22 -37
23 -53 3z"/>
<path d="M2500 1921 c-53 -33 -100 -76 -100 -90 0 -5 11 -18 25 -29 14 -11 25
-30 25 -43 0 -23 0 -23 13 -4 8 11 27 43 43 70 l29 50 -28 -17 c-15 -10 -38
-25 -51 -34 -17 -11 -26 -12 -31 -4 -8 14 -15 8 71 63 40 25 75 50 79 56 12
21 -30 11 -75 -18z"/>
<path d="M2564 1888 c-18 -29 -44 -75 -60 -103 -15 -27 -33 -53 -39 -57 -6 -5
-3 -8 7 -8 9 0 24 10 33 23 43 61 75 113 75 124 0 6 5 13 11 15 6 2 9 16 7 32
-3 27 -4 25 -34 -26z"/>
</g>
</svg>
