<?xml version="1.0" standalone="no"?>
<!DOCTYPE svg PUBLIC "-//W3C//DTD SVG 20010904//EN"
 "http://www.w3.org/TR/2001/REC-SVG-20010904/DTD/svg10.dtd">
<svg version="1.0" xmlns="http://www.w3.org/2000/svg"
 width="300.000000pt" height="300.000000pt" viewBox="0 0 300.000000 300.000000"
 preserveAspectRatio="xMidYMid meet">
<metadata>
Created by potrace 1.10, written by Peter Selinger 2001-2011
</metadata>
<g transform="translate(0.000000,300.000000) scale(0.100000,-0.100000)"
fill="#25c2a0" stroke="none">
<path d="M1027 2564 c-4 -4 -7 -16 -7 -26 0 -14 6 -19 23 -16 14 2 22 10 22
23 0 20 -25 32 -38 19z"/>
<path d="M1984 2549 c-8 -14 11 -33 25 -25 11 7 4 36 -9 36 -5 0 -12 -5 -16
-11z"/>
<path d="M1408 2539 c-120 -16 -272 -82 -370 -162 -10 -8 -18 -25 -18 -39 0
-31 -17 -48 -51 -48 -22 0 -34 -11 -64 -55 -89 -135 -135 -282 -135 -435 0
-197 75 -386 209 -529 l41 -45 -42 -43 c-28 -28 -45 -40 -52 -33 -31 31 -58
11 -270 -206 -232 -237 -254 -268 -242 -347 9 -61 42 -107 96 -135 51 -25 97
-28 143 -8 35 15 443 420 465 462 13 24 12 29 -8 56 l-22 30 53 54 54 54 70
-25 c39 -13 89 -27 113 -31 l42 -6 0 -275 0 -274 26 -24 c26 -24 33 -25 154
-25 121 0 128 1 154 25 19 17 26 34 26 60 0 33 2 35 34 35 27 0 39 -7 56 -30
12 -16 42 -42 68 -57 46 -27 52 -28 220 -31 161 -3 175 -2 218 19 36 17 51 32
65 63 10 23 16 52 12 64 -4 16 2 30 21 49 24 24 31 50 26 96 -1 10 10 31 24
48 28 33 35 93 15 130 -8 16 -7 25 6 39 29 32 31 102 4 149 -36 65 -80 81
-227 81 l-123 0 41 73 c26 49 40 86 40 111 0 141 -173 172 -245 45 -11 -20
-47 -67 -80 -104 -34 -39 -59 -76 -58 -86 2 -12 -26 -47 -73 -93 l-75 -75 1
-216 c0 -150 4 -222 12 -235 10 -15 10 -22 0 -32 -6 -6 -12 -19 -12 -28 0 -9
-10 -26 -23 -38 -18 -17 -26 -19 -35 -10 -9 9 -12 9 -12 -3 0 -12 -14 -16 -61
-17 -34 -1 -65 0 -69 3 -4 2 -3 22 3 43 10 36 13 39 36 32 32 -9 69 7 77 33 5
16 8 17 15 6 6 -9 9 -2 9 24 0 22 -4 36 -10 32 -5 -3 -17 6 -26 21 -15 22 -23
25 -56 22 l-38 -4 0 102 0 102 35 -1 c36 -1 74 25 76 52 1 9 5 5 9 -9 6 -20 8
-14 8 25 0 39 -2 45 -8 25 -5 -15 -8 -18 -9 -9 -2 34 -35 61 -74 61 -35 0 -37
2 -37 33 0 19 -4 37 -10 40 -7 4 -10 -98 -10 -299 0 -296 -1 -306 -19 -306
-11 0 -27 10 -35 22 -14 19 -16 66 -16 314 l0 292 48 -5 c44 -4 46 -3 27 12
-37 30 -95 -2 -95 -51 0 -25 4 -26 -105 6 -170 49 -146 49 -208 -1 -69 -55
-84 -84 -66 -133 l13 -35 -60 -63 c-154 -162 -361 -367 -381 -377 -45 -23
-143 -4 -143 27 0 8 -9 16 -20 19 -29 8 -26 43 4 43 16 0 33 13 52 38 27 35
269 287 362 376 23 22 42 48 42 58 0 22 9 23 38 2 22 -15 54 -13 50 3 -1 4 15
26 35 47 34 37 36 41 22 60 -9 12 -24 39 -34 61 -10 22 -41 67 -68 100 -28 33
-64 85 -81 115 -38 67 -80 196 -88 264 -3 28 -7 57 -9 64 -4 11 6 106 20 195
4 22 16 60 28 85 12 26 24 56 28 67 6 17 7 17 8 -6 1 -14 10 -36 21 -49 22
-26 24 -38 11 -73 -14 -36 -21 -83 -27 -182 -5 -76 -2 -103 20 -178 29 -105
91 -213 160 -282 50 -49 199 -135 212 -122 4 4 -8 14 -26 24 -208 114 -329
316 -330 548 0 164 60 307 179 425 122 121 239 170 407 170 49 0 114 -7 144
-15 298 -79 487 -371 440 -678 -6 -43 -18 -94 -26 -112 -20 -49 -18 -56 12
-45 36 14 64 12 98 -5 37 -19 40 -15 63 85 25 109 22 264 -6 364 -85 304 -329
517 -633 556 -92 11 -105 11 -200 -1z m241 -44 c154 -32 281 -104 388 -219
149 -160 204 -337 182 -580 -10 -102 -21 -121 -66 -112 l-30 7 10 57 c5 31 10
93 11 137 8 297 -209 571 -501 631 -75 16 -173 15 -288 -1 -34 -5 -44 -3 -63
18 l-23 24 37 18 c73 34 231 44 343 20z m-361 -93 c2 -6 -12 -18 -32 -26 -101
-42 -205 -137 -272 -248 -20 -32 -39 -58 -44 -58 -43 0 16 104 115 204 44 44
97 85 140 108 71 38 86 41 93 20z m907 -977 c36 -35 31 -65 -25 -169 -27 -51
-50 -100 -50 -108 0 -37 31 -46 166 -50 113 -3 135 -6 153 -22 25 -23 27 -53
4 -78 -14 -16 -33 -18 -159 -18 -144 0 -168 -6 -144 -35 10 -12 41 -15 146
-15 122 0 134 -2 144 -19 14 -27 13 -47 -6 -65 -12 -13 -41 -16 -149 -16 -135
0 -159 -6 -135 -35 10 -12 38 -15 121 -15 105 0 109 -1 125 -25 15 -23 15 -27
0 -50 -16 -24 -20 -25 -131 -25 -115 0 -138 -7 -115 -35 9 -11 35 -15 94 -15
84 0 106 -9 106 -42 0 -34 -35 -40 -204 -36 -158 4 -162 4 -223 36 -36 18 -78
32 -98 32 l-35 0 0 225 c0 223 0 225 21 225 13 0 38 19 63 47 22 27 79 88 126
136 47 49 89 102 94 118 11 36 50 79 71 79 9 0 27 -11 40 -25z m-1142 -263
c16 -17 15 -20 -16 -50 -33 -32 -34 -32 -51 -13 -18 20 -18 21 10 51 34 35 36
36 57 12z m1158 -8 c11 -14 10 -15 -11 -12 -13 1 -25 9 -28 16 -5 17 23 15 39
-4z m259 -20 c54 -32 73 -93 46 -145 -9 -18 -12 -47 -9 -84 3 -44 -1 -63 -16
-89 -11 -18 -23 -52 -26 -75 -3 -24 -14 -60 -24 -80 -11 -20 -22 -53 -26 -73
-4 -25 -17 -46 -40 -67 l-35 -31 -153 2 c-156 1 -222 9 -182 21 11 3 85 6 164
6 128 -1 147 2 170 19 21 16 26 27 25 63 -1 35 4 47 27 66 36 31 44 57 28 94
-11 27 -10 32 10 45 44 31 53 71 29 122 -9 18 -8 26 9 45 45 50 28 120 -36
148 -17 8 -31 17 -31 21 0 14 41 9 70 -8z m-1537 -40 c4 -4 -89 -104 -205
-223 -116 -118 -217 -230 -225 -248 -17 -41 -23 -42 -23 -3 0 26 31 63 218
255 119 124 220 225 223 225 3 0 9 -3 12 -6z m711 -106 c16 -26 -4 -53 -40
-53 -25 0 -30 4 -32 29 -6 46 47 63 72 24z m-4 -333 c7 -9 10 -25 6 -40 -6
-22 -11 -26 -39 -23 -25 2 -33 8 -35 26 -7 44 41 70 68 37z"/>
<path d="M2094 2509 c-10 -17 13 -36 27 -22 12 12 4 33 -11 33 -5 0 -12 -5
-16 -11z"/>
<path d="M2180 2384 c-11 -12 -10 -18 3 -32 16 -15 18 -15 34 0 13 14 14 20 3
32 -7 9 -16 16 -20 16 -4 0 -13 -7 -20 -16z"/>
<path d="M938 2379 c-10 -5 -18 -18 -18 -27 0 -13 4 -11 16 7 12 16 23 22 40
18 13 -2 21 0 18 4 -7 12 -35 11 -56 -2z"/>
<path d="M1320 2277 c-36 -12 -89 -39 -118 -61 -57 -41 -125 -132 -136 -181
-4 -18 6 -5 24 32 81 165 283 258 453 209 30 -9 58 -23 60 -31 4 -11 5 -10 3
2 -2 25 -86 52 -161 52 -36 0 -86 -8 -125 -22z"/>
<path d="M730 2265 c-16 -19 -6 -45 19 -45 25 0 34 26 15 45 -19 18 -19 18
-34 0z"/>
<path d="M2340 2253 c-8 -23 -22 -36 -46 -45 -40 -14 -45 -28 -10 -28 27 0 56
-24 56 -46 0 -23 14 -16 32 16 9 17 25 30 36 30 33 0 33 13 2 26 -19 8 -36 26
-45 46 l-14 33 -11 -32z"/>
<path d="M1638 2183 c-61 -61 -80 -75 -90 -65 -21 21 -66 14 -99 -16 -80 -71
5 -197 100 -148 38 20 54 49 49 88 -4 27 4 39 80 112 82 79 95 106 54 106 -10
0 -52 -35 -94 -77z m-84 -125 c12 -33 -14 -68 -49 -68 -46 0 -62 57 -22 85 31
22 60 15 71 -17z"/>
<path d="M1358 2207 c-26 -8 -66 -27 -89 -43 -42 -29 -109 -108 -109 -128 0
-6 9 3 19 20 28 46 88 101 136 124 57 28 157 36 217 17 46 -14 68 -9 68 18 0
5 -5 2 -11 -8 -8 -14 -14 -15 -30 -6 -32 17 -149 20 -201 6z"/>
<path d="M1692 2097 c-34 -35 -42 -50 -42 -81 0 -99 -97 -151 -205 -111 -15 6
-17 5 -9 -4 6 -6 33 -14 61 -17 92 -11 163 45 163 131 0 33 7 46 42 82 23 24
40 43 37 43 -3 0 -24 -19 -47 -43z"/>
<path d="M668 2111 c-16 -16 -16 -18 1 -33 18 -15 21 -15 34 0 13 14 13 20 3
35 -16 20 -16 20 -38 -2z"/>
<path d="M1754 2103 c-15 -16 -16 -50 -9 -444 l7 -426 -25 -7 c-14 -3 -32 -9
-41 -12 -14 -6 -16 24 -16 300 l0 306 -103 0 c-67 0 -107 -4 -115 -12 -14 -14
-17 -598 -3 -598 18 0 21 38 21 290 0 287 -2 280 69 284 22 1 47 8 56 16 9 7
15 9 14 4 -1 -5 -1 -138 0 -296 1 -234 4 -288 14 -288 8 0 22 -9 33 -21 25
-28 55 -21 135 31 54 35 64 38 72 25 7 -14 11 -12 28 9 11 13 33 56 49 94 l29
69 3 347 c2 190 0 346 -4 346 -4 0 -19 -5 -33 -12 l-25 -11 0 -382 0 -383 -32
-24 c-18 -14 -53 -35 -77 -47 -40 -21 -43 -21 -36 -4 5 10 10 92 12 183 2 91
5 175 7 188 2 12 0 22 -3 22 -3 0 -5 87 -4 192 2 106 3 203 3 215 0 20 6 22
55 25 30 2 55 7 54 13 0 5 8 12 18 16 10 4 -17 8 -59 8 -59 1 -80 -3 -94 -16z"/>
<path d="M2460 2025 c0 -8 -10 -20 -22 -26 l-22 -12 22 -8 c12 -5 22 -15 22
-24 0 -8 5 -15 10 -15 6 0 10 7 10 16 0 9 9 18 20 21 25 7 25 7 -5 38 -30 29
-35 31 -35 10z"/>
<path d="M1185 1998 c-53 -29 -73 -108 -39 -157 66 -94 216 -26 189 85 -16 64
-95 102 -150 72z m101 -40 c3 -5 -2 -18 -11 -28 -16 -18 -16 -18 4 -13 32 8
28 -40 -5 -66 -46 -36 -82 -19 -48 22 10 12 5 9 -13 -7 -31 -27 -31 -28 -42
-8 -26 49 -5 104 44 114 27 5 64 -2 71 -14z"/>
<path d="M549 1980 c-15 -16 -15 -19 2 -34 17 -15 21 -15 38 0 18 16 18 17 0
35 -22 22 -20 22 -40 -1z"/>
<path d="M1053 1940 c0 -36 2 -50 4 -32 2 17 2 47 0 65 -2 17 -4 3 -4 -33z"/>
<path d="M1067 1850 c11 -46 70 -110 100 -110 4 0 -5 8 -20 19 -30 19 -54 49
-74 91 l-13 25 7 -25z"/>
<path d="M1386 1834 c-4 -16 -23 -43 -42 -61 -20 -18 -31 -33 -26 -33 24 0 94
102 79 116 -2 3 -8 -7 -11 -22z"/>
<path d="M555 1771 c-4 -12 -19 -27 -33 -32 l-27 -11 26 -13 c15 -8 29 -21 33
-30 8 -21 23 -19 29 6 3 11 15 23 26 26 27 7 27 23 1 23 -11 0 -20 4 -20 8 0
5 -6 17 -14 27 -13 18 -14 18 -21 -4z"/>
<path d="M2441 1740 c-12 -42 -37 -64 -83 -75 -32 -8 -28 -25 6 -25 35 0 74
-36 82 -75 3 -19 10 -35 14 -35 4 0 11 16 14 35 8 39 47 75 82 75 36 0 29 17
-12 30 -36 12 -74 59 -74 93 0 31 -17 18 -29 -23z m39 -86 c0 -8 -9 -14 -20
-14 -22 0 -28 26 -7 33 16 6 27 -1 27 -19z"/>
<path d="M1193 1728 c15 -9 66 -9 90 1 10 4 -7 7 -41 6 -33 0 -55 -3 -49 -7z"/>
<path d="M1142 1658 c-13 -13 -16 -233 -3 -278 13 -47 23 -2 25 114 2 62 6
118 10 124 3 6 28 14 53 18 26 4 53 13 61 20 11 12 2 14 -60 14 -44 0 -79 -5
-86 -12z"/>
<path d="M1318 1659 c-16 -9 -18 -31 -18 -219 0 -122 4 -210 9 -210 5 0 23
-13 39 -30 27 -27 64 -38 97 -30 6 2 33 3 62 4 56 2 87 16 35 16 -17 0 -66 5
-108 11 l-77 12 5 228 c5 206 4 229 -11 229 -9 0 -24 -5 -33 -11z"/>
<path d="M521 1511 c-15 -10 -8 -41 9 -41 15 0 25 29 14 40 -5 5 -15 5 -23 1z"/>
<path d="M715 1371 c-3 -10 -16 -22 -28 -25 l-22 -7 23 -10 c13 -5 26 -18 29
-29 3 -11 9 -20 13 -20 4 0 10 9 13 20 3 11 16 24 29 29 l23 10 -22 7 c-12 3
-25 15 -28 25 -4 10 -10 19 -15 19 -5 0 -11 -9 -15 -19z"/>
<path d="M2427 1333 c-12 -11 -7 -41 7 -46 21 -8 48 16 40 36 -6 17 -35 23
-47 10z"/>
<path d="M1203 716 l-21 -22 23 -20 23 -20 22 23 c19 20 20 24 6 29 -9 3 -16
12 -16 20 0 19 -11 16 -37 -10z"/>
<path d="M425 389 c-4 -6 -5 -12 -3 -15 7 -6 2168 -5 2179 2 5 3 7 10 4 15 -9
13 -2172 12 -2180 -2z"/>
</g>
</svg>
