<?xml version="1.0" standalone="no"?>
<!DOCTYPE svg PUBLIC "-//W3C//DTD SVG 20010904//EN"
 "http://www.w3.org/TR/2001/REC-SVG-20010904/DTD/svg10.dtd">
<svg version="1.0" xmlns="http://www.w3.org/2000/svg"
 width="300.000000pt" height="300.000000pt" viewBox="0 0 300.000000 300.000000"
 preserveAspectRatio="xMidYMid meet">
<metadata>
Created by potrace 1.10, written by Peter Selinger 2001-2011
</metadata>
<g transform="translate(0.000000,300.000000) scale(0.100000,-0.100000)"
fill="#25c2a0" stroke="none">
<path d="M1449 2786 c-46 -16 -96 -51 -109 -77 -10 -18 -12 -18 -36 11 -45 53
-123 35 -148 -34 -4 -12 -11 -16 -24 -11 -9 4 -35 9 -57 12 -51 6 -122 -29
-150 -74 -13 -22 -25 -30 -35 -26 -33 14 -74 5 -97 -21 -33 -38 -30 -81 7
-118 26 -26 36 -30 65 -25 27 5 35 2 35 -10 0 -11 7 -14 27 -10 18 3 37 -2 57
-17 17 -11 33 -22 36 -24 7 -4 -21 -21 -47 -28 -15 -4 -33 3 -57 21 -46 35
-115 55 -188 55 -59 0 -119 -18 -133 -40 -5 -8 18 -38 61 -81 54 -54 66 -71
56 -81 -10 -10 -27 2 -80 55 -37 37 -75 67 -84 67 -23 0 -41 -71 -34 -129 l6
-46 -25 30 -26 30 -95 -99 -96 -99 73 -73 c62 -63 70 -74 53 -79 -84 -27 -159
-81 -180 -130 -14 -34 -4 -107 15 -113 6 -2 11 -10 11 -18 0 -11 20 -14 95
-14 89 0 95 1 95 20 0 12 10 25 25 32 21 9 28 8 45 -7 11 -10 20 -24 20 -32 0
-10 23 -13 98 -13 89 0 122 -8 122 -30 0 -3 -110 -4 -246 -2 -213 3 -248 1
-270 -13 -48 -31 -54 -95 -14 -135 19 -19 34 -20 285 -20 146 0 265 -4 265 -9
0 -29 -33 -32 -289 -29 l-261 3 0 -25 0 -25 240 3 c286 4 281 7 160 -113 -79
-78 -79 -79 -139 -83 -53 -4 -66 -1 -108 24 -26 16 -61 31 -78 34 -22 4 -30
11 -30 25 0 16 8 21 38 23 39 3 49 18 19 30 -13 5 -9 8 18 13 l35 6 -32 2
c-17 0 -35 -3 -38 -9 -3 -5 -22 -10 -42 -10 -26 0 -36 5 -40 20 -3 11 -9 17
-14 14 -5 -3 -5 -13 1 -24 5 -10 10 -36 10 -57 0 -48 23 -83 56 -83 14 0 47
-11 74 -25 47 -24 49 -26 39 -52 -12 -31 -4 -70 18 -95 11 -13 12 -21 3 -38
-26 -49 17 -113 86 -126 36 -7 36 -8 18 -76 -12 -42 19 -111 79 -175 78 -83
123 -107 193 -101 48 4 51 3 41 -14 -17 -27 3 -54 39 -51 25 2 32 -4 48 -38
28 -61 85 -94 161 -94 78 0 132 33 164 97 28 58 27 103 -4 164 -42 85 -136
126 -219 94 -28 -10 -33 -3 -13 22 28 36 135 27 192 -16 48 -37 85 -115 101
-214 17 -109 47 -156 123 -194 87 -44 172 -34 242 29 50 45 70 83 78 146 l6
49 32 -45 c108 -150 306 -153 413 -6 54 75 64 175 22 205 -23 16 -33 46 -21
65 5 9 11 6 20 -14 7 -15 16 -27 22 -27 5 0 7 -6 4 -14 -7 -17 39 -66 62 -66
10 0 26 -11 35 -25 14 -21 25 -25 61 -25 l45 0 0 45 c0 34 -5 47 -19 55 -11 5
-26 22 -33 37 -7 15 -39 47 -70 71 -32 24 -58 50 -58 58 0 23 17 16 60 -26
117 -114 313 -15 313 159 0 64 -17 103 -70 162 l-35 39 28 0 c26 0 32 -7 53
-56 20 -45 26 -53 34 -39 9 16 6 39 -9 93 -4 15 -2 22 8 22 7 0 31 9 52 20 22
10 43 17 47 14 29 -18 69 47 69 112 0 18 4 35 9 39 6 3 4 17 -5 33 -7 15 -14
34 -14 42 0 13 -34 15 -257 13 -244 -2 -293 3 -293 27 0 6 102 10 265 10 l266
0 24 25 c31 30 33 83 6 116 -19 24 -19 24 -278 26 -142 2 -260 3 -262 3 -2 0
2 7 9 15 10 11 35 15 110 15 93 0 97 1 108 24 15 33 48 42 73 20 10 -9 19 -23
19 -31 0 -10 21 -13 90 -13 53 0 90 4 90 10 0 6 9 19 20 30 27 27 26 79 -3
121 -28 42 -108 97 -163 111 l-43 12 20 24 c10 14 19 36 19 51 0 29 43 126 67
153 13 15 12 18 -16 32 -54 28 -107 20 -214 -32 -5 -2 -3 5 5 17 7 12 18 19
25 17 6 -3 37 19 67 47 l57 52 -128 128 -127 127 -21 -27 -22 -26 -6 42 c-7
52 -40 91 -78 91 -15 0 -31 -5 -35 -11 -3 -6 -19 11 -35 39 -39 68 -101 100
-168 85 -25 -5 -54 -13 -63 -18 -14 -5 -18 -2 -18 14 0 12 -11 33 -25 46 -46
47 -131 26 -150 -36 -7 -20 -8 -20 -25 9 -51 83 -166 122 -261 88z m162 -59
c111 -59 140 -204 57 -284 -28 -26 -37 -29 -58 -22 l-24 10 29 19 c52 34 81
119 55 160 -7 11 -10 1 -10 -36 0 -83 -55 -134 -144 -134 -36 0 -52 6 -81 31
-26 23 -35 27 -35 15 0 -9 14 -25 31 -35 24 -15 27 -20 14 -25 -35 -13 -55 -5
-79 32 -49 75 -42 158 21 232 53 63 145 78 224 37z m-324 -33 c15 -24 15 -29
2 -53 -16 -29 -61 -40 -85 -20 -17 14 -19 70 -2 87 22 22 66 14 85 -14z m577
4 c20 -29 20 -47 -1 -70 -23 -26 -69 -23 -88 6 -15 23 -13 47 8 74 16 20 64
14 81 -10z m43 -67 c1 -11 -9 -31 -23 -46 -36 -39 -34 -109 5 -162 l29 -40
-34 -27 c-19 -15 -43 -45 -54 -67 -19 -37 -20 -42 -6 -83 35 -103 29 -205 -17
-293 -18 -36 -159 -193 -173 -193 -2 0 -4 37 -4 82 l0 81 40 35 c131 111 109
311 -42 386 -185 92 -386 -65 -338 -265 10 -39 24 -64 61 -102 45 -47 49 -55
49 -101 l0 -50 -70 69 c-87 86 -114 143 -113 240 0 85 23 144 82 208 61 66
124 90 225 85 93 -4 148 -26 209 -84 36 -34 52 -37 22 -4 -23 25 -29 79 -15
130 9 33 26 58 66 96 30 28 54 54 54 58 0 5 41 66 45 66 0 0 1 -9 2 -19z
m-803 -6 c39 -19 66 -62 66 -105 0 -49 -55 -100 -108 -100 -49 0 -86 28 -102
75 -13 40 -6 70 24 104 38 42 71 49 120 26z m704 -43 c-4 -2 -8 -9 -9 -15 0
-7 -13 -22 -28 -34 l-28 -22 -1 27 c-1 15 -3 41 -6 59 l-4 31 42 -21 c23 -12
39 -23 34 -25z m288 14 c60 -60 43 -148 -36 -180 -75 -30 -150 19 -150 99 0
71 41 114 109 115 36 0 49 -6 77 -34z m-793 -9 c8 -20 -6 -36 -28 -33 -25 4
-27 32 -3 30 10 -1 15 2 12 7 -3 5 -1 9 4 9 6 0 12 -6 15 -13z m-415 -39 c7
-7 12 -27 12 -45 0 -25 -6 -36 -24 -44 -47 -22 -92 32 -66 80 12 24 58 29 78
9z m386 -37 c19 -21 66 -126 66 -148 0 -6 -4 -14 -10 -18 -10 -6 -50 15 -50
28 0 5 -14 20 -30 34 -17 13 -27 29 -24 35 3 5 15 2 27 -9 l22 -18 -19 23
c-11 12 -26 22 -34 22 -9 0 -12 6 -8 16 3 9 6 29 6 45 0 25 3 28 18 20 9 -5
26 -19 36 -30z m976 -51 c0 -47 -5 -64 -24 -87 -35 -40 -115 -123 -120 -123
-16 0 14 47 55 85 27 25 49 50 49 55 0 22 -27 7 -77 -42 -43 -42 -53 -59 -53
-86 0 -32 -24 -82 -41 -82 -4 0 -5 15 -2 33 6 41 -16 67 -58 67 -59 0 -67 -95
-9 -107 17 -3 30 -11 30 -19 0 -13 -69 -84 -82 -84 -11 0 -38 99 -38 140 0 43
34 99 70 117 33 17 82 17 78 0 -2 -7 0 -15 4 -17 10 -7 138 120 138 137 0 10
6 12 21 8 20 -7 21 -5 15 25 -7 40 9 66 30 49 9 -7 14 -33 14 -69z m-1045 -60
c3 -11 13 -20 21 -20 15 0 26 -9 52 -42 10 -13 11 -22 2 -38 -12 -22 -12 -22
-33 -2 -12 10 -37 22 -56 26 -19 3 -43 14 -53 23 -18 16 -17 17 14 44 40 34
45 35 53 9z m504 -2 c0 -13 -3 -18 -5 -12 -3 7 -15 9 -27 6 -20 -5 -20 -4 -8
11 19 24 41 21 40 -5z m740 -70 l90 -93 -82 -82 -82 -83 -37 43 -37 42 75 74
c41 40 72 76 69 80 -4 3 -40 -28 -80 -70 l-73 -77 -51 52 -52 53 83 76 c46 42
84 76 85 77 1 0 42 -42 92 -92z m-1603 8 c48 -22 124 -97 124 -121 0 -7 -44
-55 -97 -108 -84 -83 -103 -97 -131 -97 -92 0 -182 116 -182 234 0 30 0 30 68
-37 l68 -67 42 43 43 44 -66 61 c-36 34 -65 64 -65 67 0 3 33 5 73 5 55 0 84
-6 123 -24z m280 -17 c16 -17 39 -35 52 -40 22 -8 22 -10 7 -39 -20 -38 -33
-136 -18 -127 14 9 22 -13 13 -37 -9 -28 -14 -16 -45 112 -30 125 -40 134 -90
82 -16 -16 -31 -30 -34 -30 -3 0 -13 13 -23 29 -16 29 -16 29 13 41 15 7 34
18 40 26 19 23 53 16 85 -17z m482 -66 c86 -64 107 -190 44 -265 -33 -39 -78
-58 -140 -58 -147 0 -218 183 -114 294 15 16 41 35 57 42 40 19 119 12 153
-13z m402 -8 c26 -31 -18 -71 -47 -42 -19 19 -8 57 16 57 10 0 24 -7 31 -15z
m260 -98 c68 -70 91 -100 83 -108 -8 -8 -36 15 -100 82 -50 51 -93 88 -96 82
-4 -5 34 -50 84 -98 60 -60 86 -92 80 -98 -7 -7 -42 21 -107 87 l-96 98 28 29
c15 16 28 28 28 26 1 -1 44 -46 96 -100z m-1175 4 c27 -113 77 -203 162 -291
40 -43 73 -80 73 -83 0 -5 -131 -137 -136 -137 -1 0 -31 30 -66 66 -114 119
-195 164 -325 180 -106 13 -107 8 39 141 73 67 153 142 178 167 24 25 47 43
51 38 3 -4 14 -40 24 -81z m1036 12 c12 -15 12 -16 -6 -10 -11 4 6 -18 37 -49
32 -30 62 -53 67 -50 5 4 13 1 17 -5 4 -8 3 -9 -4 -5 -7 4 -12 3 -12 -1 0 -9
30 -38 43 -40 30 -6 29 -13 -3 -47 l-34 -36 -98 97 -98 97 32 33 c37 38 41 39
59 16z m-1594 -85 c74 -73 79 -96 31 -145 -51 -53 -88 -47 -160 24 l-58 57 58
62 c31 34 59 62 62 63 2 0 33 -27 67 -61z m2078 25 c-4 -17 -14 -48 -38 -116
-6 -16 -21 -33 -35 -38 -33 -13 -41 -2 -14 17 12 8 27 25 33 37 7 14 -5 7 -32
-19 -32 -30 -49 -40 -62 -35 -15 5 -7 16 45 58 63 51 128 116 83 83 -11 -8
-49 -41 -84 -72 -65 -59 -88 -71 -76 -40 4 12 3 14 -5 6 -16 -16 -2 -43 31
-59 42 -22 75 -18 104 12 19 21 25 24 25 11 0 -32 -87 -91 -152 -103 -65 -12
-121 42 -94 93 28 54 149 143 229 167 23 8 43 14 44 14 1 1 0 -7 -2 -16z
m-520 -73 c-2 -4 14 -24 36 -46 37 -37 38 -39 18 -46 -17 -7 -19 -11 -9 -23 7
-8 17 -12 22 -9 6 4 6 9 -2 14 -8 5 -6 9 6 14 12 4 23 1 30 -8 6 -9 15 -12 19
-8 4 4 3 -2 -3 -14 -30 -57 -37 -54 -140 50 l-97 97 29 25 29 25 33 -32 c18
-18 31 -35 29 -39z m-173 0 c-4 -3 -18 -26 -31 -52 -13 -27 -28 -48 -33 -48
-5 0 -7 -4 -3 -9 3 -5 1 -12 -4 -15 -14 -9 -24 13 -13 27 5 7 15 41 22 77 7
36 15 68 17 72 2 5 15 -4 28 -20 13 -15 20 -29 17 -32z m116 -101 c50 -50 92
-92 92 -94 0 -2 -23 -11 -50 -20 -55 -18 -54 -18 -244 -213 l-128 -132 -59 57
-59 57 159 161 c148 149 160 164 176 218 9 31 17 57 18 57 2 0 44 -41 95 -91z
m-1349 60 c17 -6 31 -14 31 -17 -1 -11 -27 -42 -35 -42 -16 0 -45 33 -45 52 0
21 6 22 49 7z m-19 -104 c29 -30 52 -56 49 -57 -2 -2 -14 -12 -27 -22 l-23
-20 -54 54 -55 54 22 23 c12 13 24 23 28 23 3 0 30 -25 60 -55z m772 39 c13
-5 16 -13 11 -33 -7 -32 -13 -40 -13 -17 0 9 -4 14 -10 11 -5 -3 -10 2 -10 12
0 11 -6 25 -12 32 -11 11 -10 12 2 7 8 -3 23 -9 32 -12z m172 -26 c-6 -30 -7
-98 -1 -153 1 -11 8 -24 15 -28 21 -13 14 -34 -23 -66 -44 -38 -49 -39 -39 -3
4 15 8 78 9 141 2 97 5 117 21 128 25 18 26 17 18 -19z m676 13 c0 -29 -145
-178 -181 -186 -16 -4 -29 -10 -29 -13 0 -4 -12 -15 -26 -25 l-25 -19 6 39 7
38 -22 -34 c-12 -19 -76 -92 -143 -163 -94 -100 -123 -125 -134 -117 -15 14 0
32 179 217 66 68 138 132 161 143 23 12 46 28 50 35 4 8 19 14 32 14 15 0 42
17 72 45 26 25 49 45 50 45 2 0 3 -9 3 -19z m-750 -138 l0 -136 -25 23 c-24
22 -25 29 -25 137 l0 113 25 0 25 0 0 -137z m815 14 c-17 -11 -57 -49 -90 -84
l-60 -64 -27 28 -28 29 75 74 c41 41 78 83 81 93 5 17 10 15 42 -18 l36 -37
-29 -21z m-902 -34 c-4 -9 -10 -10 -24 -2 -20 10 -24 34 -12 65 6 16 7 16 14
-2 6 -16 8 -14 10 11 1 24 3 21 9 -15 4 -25 5 -51 3 -57z m-663 72 c11 -14 7
-23 -30 -60 -41 -42 -45 -44 -62 -29 -16 16 -15 19 25 59 48 49 50 50 67 30z
m90 5 c0 -5 7 -10 15 -10 34 0 101 -45 181 -122 46 -44 84 -86 84 -92 0 -6 39
-50 86 -99 47 -48 82 -92 79 -98 -4 -5 -11 -9 -15 -7 -5 2 -102 95 -216 208
-173 171 -208 202 -214 186 -6 -19 -7 -19 -28 2 -29 29 -28 42 3 42 14 0 25
-4 25 -10z m-305 -31 c17 -10 64 -52 105 -93 l74 -76 -97 0 c-89 0 -97 2 -97
19 0 11 -12 29 -26 40 -47 37 -102 24 -129 -30 -15 -28 -20 -30 -63 -27 -38 2
-46 6 -44 21 2 11 -4 17 -16 17 -35 0 -35 31 0 68 81 83 211 111 293 61z
m2076 -1 c58 -24 122 -88 113 -111 -3 -9 -12 -17 -20 -17 -8 0 -14 -9 -14 -20
0 -17 -7 -20 -50 -20 -44 0 -52 3 -60 24 -11 31 -47 56 -80 56 -33 0 -69 -25
-80 -56 -9 -23 -14 -24 -99 -24 -86 0 -89 -1 -95 -25 -6 -25 -30 -34 -41 -15
-11 18 6 51 24 48 11 -2 52 28 106 77 48 44 94 84 103 89 50 29 116 27 193 -6z
m-1606 -232 l216 -209 -21 -22 -22 -23 -203 205 c-120 122 -208 204 -216 201
-19 -6 -18 -32 1 -36 8 -1 102 -89 208 -194 175 -173 192 -193 178 -207 -14
-14 -37 6 -235 205 l-218 219 41 37 c22 20 44 36 48 35 4 -1 104 -96 223 -211z
m517 -3 c171 -171 188 -191 188 -222 0 -31 16 -51 165 -201 164 -165 165 -167
165 -211 -1 -51 -15 -74 -55 -89 -64 -24 -51 -36 -582 516 l-232 241 77 76
c42 42 79 77 82 77 3 0 89 -84 192 -187z m596 84 l41 -42 -163 -170 c-134
-139 -166 -168 -177 -157 -11 10 3 29 76 105 153 156 179 186 171 194 -4 5
-68 -55 -141 -132 l-133 -140 -21 25 c-11 14 -20 27 -21 30 0 8 311 330 319
330 4 0 26 -19 49 -43z m-1371 -62 c-7 -13 -14 -19 -16 -12 -2 7 -10 16 -17
20 -21 12 6 38 28 26 13 -7 14 -13 5 -34z m187 -172 c164 -167 169 -173 152
-192 -17 -18 -20 -16 -119 86 -61 63 -104 116 -108 132 -12 57 -34 69 -34 19
l0 -33 -297 -3 c-264 -2 -298 0 -313 14 -9 9 -15 28 -13 43 3 24 7 26 63 29
33 2 63 8 66 14 6 9 11 9 22 0 11 -9 69 -12 213 -10 l199 3 -3 40 c-2 22 -2
38 0 35 1 -3 79 -83 172 -177z m1246 127 l0 -30 209 0 c158 0 210 3 214 13 4
10 7 10 18 0 7 -7 34 -13 59 -13 66 0 90 -32 53 -72 -15 -17 -38 -18 -304 -18
-274 0 -289 1 -299 19 -5 11 -7 27 -4 35 3 9 1 16 -5 16 -10 0 -15 -14 -23
-62 -3 -17 -195 -218 -208 -218 -4 0 -13 7 -20 15 -11 13 7 35 119 149 73 73
142 147 154 164 28 40 37 40 37 2z m-790 -233 l72 -77 -70 -78 c-121 -133
-286 -291 -315 -301 -16 -6 -41 -11 -56 -11 -17 0 -37 -11 -54 -28 -23 -24
-29 -42 -37 -111 -12 -102 -42 -160 -103 -195 -37 -21 -127 -42 -127 -29 0 11
49 45 97 67 51 24 90 72 80 99 -3 7 -8 4 -12 -8 -22 -56 -97 -95 -148 -76 -21
8 -29 5 -58 -25 l-33 -34 -37 36 -37 36 39 35 c33 30 37 38 28 59 -12 33 -2
71 28 112 l25 33 -39 -16 c-21 -9 -55 -33 -76 -53 l-38 -37 7 30 c11 48 44 94
87 123 51 34 141 37 200 8 l38 -19 40 39 c23 23 39 47 39 62 0 25 34 65 222
258 65 66 118 127 118 134 0 16 30 52 41 48 3 -2 39 -38 79 -81z m798 40 c29
-22 11 -54 -88 -152 l-100 -100 -37 38 -38 37 90 91 c109 109 129 120 173 86z
m-1255 -75 c48 -48 87 -94 87 -103 0 -8 -13 -28 -30 -44 l-30 -29 0 33 c0 105
-123 200 -223 174 -46 -13 -63 -9 -26 6 13 5 33 18 43 30 13 14 31 21 55 21
32 0 46 -10 124 -88z m1822 22 c27 -27 12 -39 -56 -42 -49 -2 -69 -8 -86 -24
-24 -23 -30 -67 -12 -85 18 -18 -55 -36 -127 -31 -50 3 -72 10 -106 34 -41 28
-108 123 -108 151 0 10 50 13 239 13 207 0 242 -2 256 -16z m-1919 -50 c42
-20 70 -58 82 -112 8 -35 7 -44 -9 -58 -10 -9 -26 -39 -35 -68 -9 -28 -22 -61
-30 -73 -12 -19 -17 -20 -48 -11 l-34 11 49 49 c61 61 77 109 56 160 -9 20
-28 44 -42 54 -33 21 -90 22 -113 1 -9 -8 -30 -17 -46 -21 -30 -7 -66 -41
-123 -116 -42 -54 -44 -98 -5 -141 l28 -32 -34 -33 c-19 -19 -30 -34 -24 -34
7 0 12 -4 12 -8 0 -13 -31 -11 -57 3 -21 11 -22 13 -6 17 10 3 22 5 27 6 5 0
13 6 17 14 16 24 9 56 -16 79 -51 49 -25 102 114 229 45 41 94 80 109 87 38
17 88 16 128 -3z m1435 -75 c12 -17 20 -31 18 -32 -2 -2 -20 -10 -39 -19 -92
-41 -139 -113 -140 -211 0 -67 9 -88 58 -140 l36 -37 -27 -27 -27 -27 -30 29
-30 29 22 23 c29 31 14 42 -17 13 -14 -13 -25 -19 -25 -13 0 5 9 18 20 28 11
10 18 21 15 23 -3 3 -16 -5 -30 -18 -22 -20 -25 -21 -40 -7 -14 15 -13 18 9
32 62 41 69 171 11 225 l-26 24 98 98 97 97 13 -30 c7 -17 22 -44 34 -60z
m446 35 c8 -21 -13 -42 -28 -27 -13 13 -5 43 11 43 6 0 13 -7 17 -16z m-1217
-155 l0 -149 -25 0 -25 0 0 137 c0 112 3 140 16 154 9 10 21 16 25 13 5 -3 9
-72 9 -155z m1158 139 c5 -7 13 -23 16 -35 6 -20 4 -23 -18 -23 -30 0 -48 27
-35 52 11 21 23 23 37 6z m-1851 -33 c26 -18 36 -56 23 -89 -12 -31 -30 -34
-30 -5 0 27 -37 79 -56 79 -17 0 -19 16 -1 23 22 10 42 7 64 -8z m775 -20 c12
-16 9 -25 -7 -19 -33 13 -7 -18 145 -176 88 -90 160 -166 160 -167 0 -2 -10
-3 -23 -3 -15 0 -66 43 -166 144 -139 139 -143 145 -139 180 2 20 0 36 -4 36
-4 0 -8 5 -8 10 0 13 32 9 42 -5z m-823 -29 c44 -44 24 -124 -37 -147 -29 -11
-86 11 -101 39 -16 30 -13 74 5 100 33 47 89 50 133 8z m634 -205 c-4 -10 -10
13 -13 57 l-5 72 -117 -130 c-107 -117 -123 -131 -170 -145 -28 -8 -63 -15
-76 -15 -17 0 -22 -4 -19 -14 3 -8 -1 -17 -9 -20 -8 -3 -19 -16 -24 -28 -7
-19 -9 -16 -9 21 -1 38 1 42 14 31 13 -11 14 -10 9 4 -3 9 -1 16 5 16 6 0 10
3 10 8 -4 23 3 42 15 42 8 0 16 4 18 8 2 5 19 12 38 15 33 6 34 6 15 -8 -11
-9 -25 -13 -33 -10 -7 2 -10 0 -7 -5 3 -6 2 -10 -2 -10 -5 0 -18 -7 -29 -15
-18 -15 -16 -15 26 -9 62 9 111 36 148 81 17 21 73 83 124 138 l93 100 3 -84
c2 -46 -1 -92 -5 -100z m918 150 c-42 -39 -43 -39 -62 -20 -10 10 -19 21 -19
24 0 11 58 34 89 35 l34 0 -42 -39z m120 -9 c112 -72 147 -175 89 -269 -23
-38 -86 -73 -132 -73 -70 1 -148 58 -200 147 l-17 30 50 49 49 48 95 -94 c52
-52 95 -88 95 -80 0 8 -39 54 -87 102 l-87 88 39 40 c21 22 44 40 50 40 6 0
31 -13 56 -28z m-1991 14 c0 -2 -7 -17 -15 -32 -18 -35 -19 -56 -3 -72 9 -9 9
-12 0 -12 -7 0 -12 5 -12 11 0 5 -4 8 -8 5 -9 -6 -12 27 -6 72 4 23 10 32 24
32 11 0 20 -2 20 -4z m150 -46 c0 -10 13 -31 30 -46 31 -30 26 -44 -17 -44
-35 0 -55 57 -37 104 8 20 24 11 24 -14z m1617 -60 l-42 -47 -3 28 c-2 15 6
46 18 69 l21 42 24 -22 24 -23 -42 -47z m-309 -232 c62 -3 98 -10 127 -25 105
-55 150 -163 110 -260 -29 -69 -33 -70 -95 -8 -46 46 -56 61 -52 81 3 20 -4
35 -34 65 -21 21 -46 39 -56 39 -10 0 -92 73 -183 163 -130 128 -165 168 -165
189 0 23 16 9 131 -107 l130 -133 87 -4z m-613 87 c-90 -100 -145 -130 -250
-139 -70 -6 -70 -6 -40 10 17 10 56 25 89 35 78 24 118 53 201 150 65 75 70
79 73 54 3 -21 -12 -43 -73 -110z m-820 75 c0 -18 -6 -26 -23 -28 -24 -4 -38
18 -28 44 3 9 15 14 28 12 17 -2 23 -10 23 -28z m1085 -35 c0 -12 -15 -15 -75
-15 -60 0 -75 3 -75 15 0 12 15 15 75 15 60 0 75 -3 75 -15z m140 -149 l0 -35
-44 47 c-31 33 -46 59 -51 87 l-7 40 51 -52 c42 -42 51 -58 51 -87z m-335 87
c-4 -21 -15 -43 -26 -51 -36 -25 -69 -96 -70 -148 0 -42 -2 -46 -12 -30 -7 10
-22 32 -35 47 l-24 29 74 80 c40 45 76 88 81 96 14 25 19 15 12 -23z m672 -12
c38 -43 41 -56 11 -47 -13 4 -51 14 -85 23 -55 14 -62 19 -65 45 l-5 29 56 -7
c47 -6 61 -12 88 -43z m-467 -6 c0 -12 -16 -15 -85 -15 -69 0 -85 3 -85 15 0
12 16 15 85 15 69 0 85 -3 85 -15z m-970 -63 c0 -20 -9 -35 -29 -50 l-29 -21
-7 26 c-5 21 -1 31 22 49 37 30 43 30 43 -4z m831 16 c0 -10 2 -10 6 0 3 7 24
12 54 12 31 0 48 -4 44 -10 -3 -5 -1 -10 4 -10 6 0 11 5 11 10 0 36 77 -31
101 -88 27 -62 27 -259 0 -318 -26 -57 -80 -96 -141 -102 -63 -6 -91 2 -131
35 -54 46 -69 92 -69 223 0 128 9 172 43 211 38 42 76 60 78 37z m378 -69 c37
-36 61 -69 61 -82 0 -25 67 -97 90 -97 8 0 41 -27 72 -59 62 -65 61 -68 -5
-96 -97 -40 -186 0 -255 115 -25 42 -27 53 -27 162 0 65 1 118 2 118 1 0 29
-27 62 -61z m507 -72 c8 -15 26 -33 39 -39 28 -12 35 -31 8 -21 -11 4 -14 3
-9 -5 4 -7 1 -12 -8 -12 -9 0 -18 11 -22 25 -3 14 -12 25 -20 25 -7 0 -36 22
-63 48 -47 45 -49 50 -33 65 15 16 19 15 54 -20 21 -21 45 -51 54 -66z m-1221
-43 c14 -14 32 -24 39 -21 21 8 39 -35 41 -98 1 -79 0 -82 -51 -104 -24 -11
-44 -25 -44 -30 0 -6 -16 -11 -35 -11 -21 0 -35 5 -35 13 0 12 -44 37 -66 37
-19 0 -28 39 -25 105 3 54 25 105 39 90 7 -7 62 24 62 35 0 20 50 9 75 -16z
m630 -113 c-12 -12 -31 11 -29 35 4 65 6 67 19 19 7 -27 12 -52 10 -54z m-840
52 c-16 -80 -16 -79 -31 -59 -8 11 -14 29 -14 40 0 16 -3 17 -12 8 -14 -14
-28 -16 -28 -4 0 10 41 29 67 31 15 1 20 -4 18 -16z"/>
<path d="M1475 2696 c-35 -15 -85 -70 -85 -92 0 -9 7 -22 15 -31 17 -16 12
-33 -11 -33 -8 0 -14 -5 -14 -11 0 -5 4 -8 8 -5 5 3 28 -8 53 -25 95 -63 199
-13 199 96 0 75 -95 133 -165 101z m97 -27 c39 -21 69 -129 36 -129 -5 0 -6
-4 -3 -10 8 -13 -54 -50 -83 -50 -49 0 -94 41 -97 89 -3 35 19 87 42 100 24
14 79 14 105 0z"/>
<path d="M1471 2623 c-24 -30 -20 -58 11 -85 28 -25 55 -22 83 7 30 29 31 45
4 79 -28 35 -70 35 -98 -1z m65 -24 c8 -14 -11 -33 -25 -25 -11 7 -4 36 9 36
5 0 12 -5 16 -11z"/>
<path d="M1804 2679 c-8 -14 11 -33 25 -25 6 4 11 14 11 22 0 16 -26 19 -36 3z"/>
<path d="M1774 2425 c-15 -23 -15 -27 0 -50 19 -29 47 -32 70 -9 20 20 20 48
0 68 -23 23 -51 20 -70 -9z m60 -11 c8 -21 -1 -34 -25 -34 -12 0 -19 7 -19 18
0 34 33 45 44 16z"/>
<path d="M1040 2583 c-40 -14 -53 -69 -22 -96 58 -53 137 28 82 83 -20 20 -33
23 -60 13z"/>
<path d="M1988 2580 c-16 -14 -28 -30 -28 -34 0 -5 8 -2 18 7 9 9 27 20 39 24
15 6 18 11 9 18 -7 7 -19 2 -38 -15z"/>
<path d="M1993 2535 c-14 -11 -16 -18 -7 -31 15 -25 29 -27 47 -9 30 30 -5 65
-40 40z"/>
<path d="M857 2520 c5 -19 3 -22 -11 -17 -12 5 -16 3 -14 -5 7 -20 37 -21 44
-3 4 9 0 23 -9 32 -15 15 -15 14 -10 -7z"/>
<path d="M2280 2323 l-65 -68 68 65 c62 60 72 70 64 70 -1 0 -32 -30 -67 -67z"/>
<path d="M2305 2308 c-39 -40 -52 -57 -30 -37 62 55 79 73 94 92 28 36 3 15
-64 -55z"/>
<path d="M2320 2285 c-35 -36 -60 -65 -54 -65 5 0 39 29 74 65 35 36 60 65 54
65 -5 0 -39 -29 -74 -65z"/>
<path d="M2341 2265 c-36 -35 -61 -65 -56 -65 6 0 40 29 75 65 35 36 61 65 56
65 -4 0 -38 -29 -75 -65z"/>
<path d="M2420 2195 c-36 -36 -60 -65 -55 -65 13 0 130 119 124 125 -3 2 -34
-25 -69 -60z"/>
<path d="M780 2321 c42 -22 80 -74 80 -109 0 -14 -11 -44 -25 -68 -30 -52 -92
-80 -152 -70 -32 5 -35 5 -19 -5 11 -7 39 -13 62 -13 72 -2 145 75 159 167 6
38 7 38 26 21 30 -27 22 -1 -8 29 -31 29 -108 66 -138 67 -14 0 -10 -5 15 -19z"/>
<path d="M1483 2233 c-60 -12 -105 -100 -83 -159 46 -121 207 -115 241 8 23
87 -65 171 -158 151z m108 -52 c63 -64 20 -171 -69 -171 -48 0 -89 29 -100 73
-27 100 95 171 169 98z"/>
<path d="M1482 2154 c-44 -31 -16 -104 40 -104 24 0 58 35 58 60 0 25 -34 60
-58 60 -10 0 -28 -7 -40 -16z m63 -44 c0 -20 -6 -26 -26 -28 -30 -4 -46 22
-28 45 20 23 54 12 54 -17z"/>
<path d="M906 2041 c-43 -43 -67 -75 -63 -84 3 -8 26 -31 52 -52 l46 -38 70
69 69 69 -53 53 -53 52 -68 -69z m119 -39 c-7 -7 -55 39 -55 52 0 5 13 -3 30
-19 16 -16 28 -31 25 -33z m-35 -21 c0 -10 -8 -7 -25 9 -14 13 -25 27 -25 32
0 15 49 -26 50 -41z m-41 -8 c12 -14 19 -28 16 -31 -6 -6 -55 38 -55 50 0 16
19 7 39 -19z m-30 -30 c12 -14 19 -28 16 -31 -6 -6 -55 38 -55 50 0 16 19 7
39 -19z"/>
<path d="M785 1951 c-8 -15 3 -31 21 -31 9 0 14 7 12 17 -4 20 -24 28 -33 14z"/>
<path d="M1078 1928 c-14 -5 -29 -16 -32 -24 -7 -18 10 -54 25 -54 6 0 8 4 5
9 -3 5 1 15 10 22 13 11 27 1 97 -69 60 -59 86 -79 96 -73 11 7 -5 30 -69 99
-45 50 -88 93 -94 95 -6 2 -23 0 -38 -5z"/>
<path d="M513 2063 c26 -29 47 -55 47 -58 0 -12 -18 -3 -50 28 -63 59 -76 62
-25 6 33 -36 56 -53 68 -51 31 8 27 18 -31 73 l-56 54 47 -52z"/>
<path d="M410 2042 c0 -11 84 -92 94 -92 5 0 1 9 -10 21 -10 12 -18 23 -16 25
1 2 2 10 2 17 0 9 -2 9 -9 -1 -6 -10 -10 -10 -21 3 -10 12 -10 15 0 15 19 0 6
10 -19 15 -11 2 -21 1 -21 -3z"/>
<path d="M2024 2039 c-10 -17 13 -36 27 -22 12 12 4 33 -11 33 -5 0 -12 -5
-16 -11z"/>
<path d="M1826 1739 c-100 -99 -172 -176 -161 -171 23 11 355 334 355 345 0
18 -26 -5 -194 -174z"/>
<path d="M2020 1831 c-43 -28 -330 -321 -314 -321 4 0 73 67 153 148 80 82
162 160 181 175 46 35 36 34 -20 -2z"/>
<path d="M2264 1749 c-38 -39 -60 -66 -49 -60 28 15 131 119 124 125 -3 3 -36
-26 -75 -65z"/>
<path d="M413 1779 c-18 -5 -33 -14 -33 -20 0 -7 7 -8 18 -3 38 17 114 16 153
-2 54 -24 60 -11 6 15 -46 22 -91 25 -144 10z"/>
<path d="M307 1734 c-14 -15 -6 -34 14 -34 14 0 19 5 17 17 -3 18 -20 27 -31
17z"/>
<path d="M2493 1784 c-12 -3 -27 -12 -33 -19 -11 -13 -8 -13 20 -4 31 11 108
8 145 -6 18 -7 19 -6 4 9 -16 17 -95 28 -136 20z"/>
<path d="M2689 1724 c-10 -13 -10 -17 1 -24 17 -10 30 -4 30 15 0 22 -16 26
-31 9z"/>
<path d="M1320 1665 c-48 -49 -46 -59 6 -20 18 14 36 25 40 25 4 0 40 -30 79
-67 40 -38 92 -87 116 -109 24 -23 58 -58 74 -78 35 -43 83 -81 92 -72 6 6
-346 366 -357 366 -3 0 -26 -20 -50 -45z"/>
<path d="M1482 1478 c-7 -7 -12 -24 -12 -38 0 -14 5 -31 12 -38 7 -7 24 -12
38 -12 14 0 31 5 38 12 7 7 12 24 12 38 0 14 -5 31 -12 38 -7 7 -24 12 -38 12
-14 0 -31 -5 -38 -12z"/>
<path d="M1902 1028 c-7 -7 -12 -26 -12 -43 0 -40 16 -55 57 -55 34 0 53 21
53 58 0 41 -69 69 -98 40z m68 -29 c16 -29 -13 -63 -41 -48 -22 11 -25 39 -7
57 18 18 36 15 48 -9z"/>
<path d="M1965 1500 c-82 -83 -144 -150 -138 -150 7 0 68 55 135 123 68 68
134 131 148 139 17 11 22 19 15 27 -8 7 -55 -34 -160 -139z"/>
<path d="M370 1490 c-9 -18 -8 -20 15 -20 29 0 31 5 10 26 -12 13 -15 12 -25
-6z"/>
<path d="M523 1473 c54 -2 139 -2 190 0 51 1 7 3 -98 3 -104 0 -146 -2 -92 -3z"/>
<path d="M2640 1495 c-7 -9 -20 -13 -27 -10 -9 3 -13 0 -10 -7 3 -9 25 -12 78
-10 83 4 107 12 36 12 -31 0 -49 5 -55 16 -8 14 -10 14 -22 -1z"/>
<path d="M2323 1473 c48 -2 126 -2 175 0 48 1 8 3 -88 3 -96 0 -136 -2 -87 -3z"/>
<path d="M2318 1443 c45 -2 119 -2 165 0 45 1 8 3 -83 3 -91 0 -128 -2 -82 -3z"/>
<path d="M1317 1282 c-24 -27 -21 -59 8 -78 23 -15 27 -15 50 0 27 18 34 63
13 84 -18 18 -53 15 -71 -6z"/>
<path d="M1334 1122 c-22 -21 -64 -65 -94 -98 -30 -32 -11 -16 43 36 53 52 97
96 97 97 0 8 -11 0 -46 -35z"/>
<path d="M1066 1024 c-20 -20 -21 -68 -1 -84 22 -18 66 -15 82 6 41 56 -32
127 -81 78z m58 -20 c27 -26 12 -58 -25 -52 -27 3 -37 32 -19 53 16 19 25 19
44 -1z"/>
<path d="M925 850 l-40 -40 -40 20 c-22 11 -56 20 -77 20 -42 0 -101 -21 -113
-40 -5 -9 -3 -9 11 -2 35 17 117 21 159 6 22 -7 48 -14 58 -14 18 0 87 64 87
81 0 14 -2 12 -45 -31z"/>
<path d="M729 751 c-41 -41 -40 -90 2 -125 59 -50 139 -17 139 58 0 48 -8 65
-41 81 -42 22 -67 18 -100 -14z m86 -13 c24 -11 26 -16 21 -47 -3 -20 -7 -41
-8 -47 -3 -20 -61 -14 -80 8 -26 30 -23 61 10 80 33 21 26 20 57 6z"/>
<path d="M2090 1244 c-47 -47 -76 -82 -65 -76 26 14 172 162 160 162 -6 0 -49
-39 -95 -86z"/>
<path d="M2121 1225 c-40 -41 -70 -75 -67 -75 4 0 28 22 54 49 73 75 96 101
91 101 -3 0 -38 -34 -78 -75z"/>
<path d="M2344 1269 c-2 -4 2 -9 9 -12 17 -6 317 0 324 7 3 3 -70 6 -162 8
-92 2 -169 0 -171 -3z"/>
<path d="M2207 1160 c-48 -30 -60 -56 -31 -67 9 -3 26 5 42 20 15 13 37 28 50
32 14 4 22 13 20 23 -5 27 -30 25 -81 -8z"/>
<path d="M2124 1079 c-9 -15 11 -33 30 -26 9 4 13 13 10 22 -7 17 -30 20 -40
4z"/>
<path d="M702 1078 c-28 -28 -7 -78 33 -78 12 0 26 5 33 12 7 7 12 21 12 33 0
12 -5 26 -12 33 -7 7 -21 12 -33 12 -12 0 -26 -5 -33 -12z m58 -17 c7 -15 6
-23 -6 -35 -12 -12 -20 -13 -35 -6 -22 12 -25 30 -7 48 18 18 36 15 48 -7z"/>
<path d="M2404 1011 c3 -5 19 -11 35 -13 21 -3 28 -1 24 9 -3 7 -18 13 -35 13
-16 0 -27 -4 -24 -9z"/>
<path d="M1976 689 c-6 -13 -18 -16 -54 -13 -35 3 -42 2 -27 -5 11 -5 34 -10
51 -10 18 -1 44 -7 59 -15 15 -8 34 -12 43 -9 10 4 4 11 -21 22 -20 8 -38 22
-40 31 -3 13 -5 13 -11 -1z"/>
<path d="M2121 553 c0 -17 -5 -43 -11 -58 -6 -16 -6 -24 0 -20 12 7 23 67 17
92 -3 10 -5 5 -6 -14z"/>
<path d="M1440 675 c0 -8 5 -15 10 -15 6 0 10 -57 10 -150 0 -99 4 -150 11
-150 7 0 9 54 8 165 -3 152 -4 165 -21 165 -10 0 -18 -7 -18 -15z"/>
<path d="M1560 520 c0 -107 4 -170 10 -170 6 0 10 58 10 155 0 97 4 155 10
155 6 0 10 7 10 15 0 8 -9 15 -20 15 -19 0 -20 -7 -20 -170z"/>
<path d="M1621 659 c-13 -39 -15 -99 -2 -99 7 0 21 117 15 128 -1 2 -7 -11
-13 -29z"/>
<path d="M1400 623 c0 -36 4 -63 10 -63 13 0 13 90 0 110 -7 11 -10 -3 -10
-47z"/>
<path d="M1655 579 c-4 -26 -3 -45 4 -52 8 -8 11 3 11 41 0 63 -6 67 -15 11z"/>
<path d="M1400 455 c0 -119 34 -165 123 -165 40 0 53 5 78 29 28 28 29 33 29
120 0 54 -4 91 -10 91 -6 0 -10 -35 -10 -85 0 -78 -2 -88 -25 -110 -33 -34
-93 -34 -131 -2 -25 22 -28 31 -32 110 -2 48 -8 87 -13 87 -5 0 -9 -34 -9 -75z"/>
<path d="M1810 582 c0 -68 13 -103 54 -141 37 -35 41 -21 7 23 -22 27 -32 53
-37 94 -10 85 -23 98 -24 24z"/>
<path d="M1814 438 c19 -29 93 -71 109 -61 5 3 -7 12 -28 19 -20 7 -51 25 -68
41 l-30 28 17 -27z"/>
<path d="M1013 486 c-15 -13 -25 -27 -21 -31 4 -4 17 2 29 14 16 15 36 21 68
21 34 0 42 3 31 10 -27 18 -78 11 -107 -14z"/>
<path d="M1045 440 c-4 -6 -10 -8 -15 -5 -18 11 7 -49 26 -61 39 -26 85 31 52
64 -15 15 -54 16 -63 2z"/>
<path d="M674 2500 c-29 -11 -38 -40 -20 -58 13 -14 14 -13 10 5 -6 24 19 48
42 39 11 -4 15 -14 12 -31 -3 -13 -1 -22 3 -19 16 9 9 53 -8 62 -10 6 -27 6
-39 2z"/>
<path d="M2674 1979 c-8 -14 11 -33 25 -25 6 4 11 14 11 22 0 16 -26 19 -36 3z"/>
<path d="M284 1916 c-3 -8 -4 -25 -2 -38 2 -18 9 -23 32 -23 36 0 56 27 40 53
-14 22 -62 28 -70 8z m56 -26 c0 -27 -19 -35 -38 -17 -12 13 -13 19 -3 31 16
19 41 10 41 -14z"/>
<path d="M2670 1915 c-26 -32 13 -81 48 -59 34 22 22 74 -18 74 -10 0 -23 -7
-30 -15z m50 -25 c0 -13 -7 -20 -20 -20 -13 0 -20 7 -20 20 0 13 7 20 20 20
13 0 20 -7 20 -20z"/>
<path d="M2527 1613 c-14 -13 -6 -33 13 -33 13 0 20 7 20 20 0 19 -20 27 -33
13z"/>
<path d="M380 1265 c0 -13 6 -16 21 -12 18 5 20 2 15 -21 -5 -20 -4 -23 4 -12
12 19 13 50 1 50 -5 0 -16 3 -25 6 -11 4 -16 1 -16 -11z"/>
<path d="M590 1264 c0 -9 7 -14 17 -12 25 5 28 28 4 28 -12 0 -21 -6 -21 -16z"/>
<path d="M467 1254 c-14 -14 -7 -35 11 -32 9 2 17 10 17 17 0 16 -18 25 -28
15z"/>
<path d="M264 1075 c-8 -20 13 -45 37 -45 23 0 24 9 3 38 -18 26 -32 28 -40 7z"/>
<path d="M2736 1075 c-23 -17 -15 -45 13 -45 22 0 46 34 36 50 -9 14 -27 12
-49 -5z"/>
<path d="M2690 996 c-27 -33 18 -72 48 -42 13 13 14 20 6 34 -15 23 -38 26
-54 8z"/>
<path d="M312 988 c-25 -25 -6 -68 30 -68 10 0 18 -7 18 -15 0 -8 7 -15 15
-15 8 0 15 7 15 15 0 8 -7 15 -16 15 -8 0 -12 5 -9 11 4 6 1 10 -6 8 -29 -3
-39 2 -39 21 0 14 7 20 21 20 11 0 17 5 14 10 -8 14 -28 13 -43 -2z"/>
<path d="M465 750 c-8 -14 3 -30 21 -30 8 0 14 9 14 20 0 21 -24 28 -35 10z"/>
<path d="M2494 613 c-10 -16 -15 -16 -34 -5 -20 12 -21 11 -18 -10 2 -14 11
-24 24 -26 24 -3 47 20 42 43 -3 13 -5 13 -14 -2z"/>
<path d="M2263 464 c-3 -8 2 -23 11 -32 15 -15 17 -15 32 0 21 21 11 48 -16
48 -11 0 -23 -7 -27 -16z"/>
<path d="M1235 280 c-23 -26 -10 -55 25 -55 30 0 49 29 34 53 -16 25 -38 26
-59 2z m43 -23 c2 -12 -3 -17 -17 -17 -12 0 -21 6 -21 13 0 31 32 34 38 4z"/>
<path d="M1751 286 c-7 -8 -11 -25 -9 -38 2 -18 9 -23 32 -23 36 0 56 27 40
53 -14 22 -48 27 -63 8z m44 -27 c0 -7 -8 -15 -17 -17 -18 -3 -25 18 -11 32
10 10 28 1 28 -15z"/>
</g>
</svg>
